<svg viewBox="-41 0 512 512" xmlns="http://www.w3.org/2000/svg"><path d="m376.027344 403h-323.054688c-14.257812 0-25.476562-12.175781-24.3125-26.382812l20.160156-246.03125c1.039063-12.65625 11.613282-22.402344 24.308594-22.402344h282.742188c12.695312 0 23.269531 9.746094 24.308594 22.402344l20.160156 246.03125c1.164062 14.207031-10.054688 26.382812-24.3125 26.382812zm0 0" fill="#e6cb59"/><path d="m378.25 504.5h-327.5c-23.886719 0-43.25-19.363281-43.25-43.25v-105.921875c0-4.96875 4.03125-9 9.003906-9h395.992188c4.972656 0 9.003906 4.03125 9.003906 9v105.921875c0 23.886719-19.363281 43.25-43.25 43.25zm0 0" fill="#fa9f6a"/><path d="m313.398438 504.5h-197.796876c-35.824218 0-64.019531-30.585938-61.105468-66.292969l19.199218-235.429687c5.984376-73.324219 67.234376-129.785156 140.804688-129.785156s134.820312 56.460937 140.804688 129.785156l19.199218 235.429687c2.914063 35.707031-25.28125 66.292969-61.105468 66.292969zm0 0" fill="#85cdea"/><path d="m84.496094 438.207031 19.203125-235.429687c5.566406-68.277344 59.066406-121.921875 125.800781-128.988282-4.933594-.519531-9.9375-.796874-15-.796874-73.570312 0-134.820312 56.460937-140.804688 129.785156l-19.199218 235.429687c-2.910156 35.707031 25.28125 66.292969 61.105468 66.292969h30c-35.824218 0-64.019531-30.585938-61.105468-66.292969zm0 0" fill="#78b7d2"/><path d="m108.757812 343.769531-6.390624 93.71875c-.679688 10.019531 7.261718 18.523438 17.304687 18.523438h189.65625c10.042969 0 17.984375-8.503907 17.300781-18.523438l-6.386718-93.71875c-.621094-9.101562-8.183594-16.164062-17.304688-16.164062h-176.878906c-9.117188 0-16.679688 7.0625-17.300782 16.164062zm0 0" fill="#e6cb59"/><path d="m132.371094 437.488281 6.386718-93.71875c.621094-9.101562 8.183594-16.164062 17.304688-16.164062h-30c-9.121094 0-16.683594 7.066406-17.304688 16.164062l-6.386718 93.71875c-.683594 10.019531 7.257812 18.523438 17.300781 18.523438h30c-10.042969 0-17.984375-8.503907-17.300781-18.523438zm0 0" fill="#d9bd4a"/><path d="m326.640625 374.261719-91.65625 19.316406c-13.507813 2.847656-27.460937 2.847656-40.96875 0l-91.65625-19.316406c-6.875-1.449219-11.582031-7.816407-10.953125-14.8125l4.488281-49.882813c.640625-7.148437 6.632813-12.625 13.8125-12.625h209.585938c7.175781 0 13.167969 5.476563 13.8125 12.625l4.484375 49.882813c.632812 7-4.074219 13.363281-10.949219 14.8125zm0 0" fill="#fadc60"/><path d="m125.894531 309.566406c.644531-7.148437 6.632813-12.625 13.8125-12.625h-30c-7.175781 0-13.167969 5.476563-13.8125 12.625l-4.484375 49.882813c-.628906 6.996093 4.074219 13.359375 10.949219 14.8125l16.964844 3.574219zm0 0" fill="#e6cb59"/><path d="m283.867188 251.574219h-11.355469c-4.144531 0-7.5-3.355469-7.5-7.5 0-4.140625 3.355469-7.5 7.5-7.5h11.355469c4.144531 0 7.5 3.359375 7.5 7.5 0 4.144531-3.355469 7.5-7.5 7.5zm0 0" fill="#fd6f71"/><path d="m156.488281 251.574219h-11.355469c-4.140624 0-7.5-3.355469-7.5-7.5 0-4.140625 3.359376-7.5 7.5-7.5h11.355469c4.140625 0 7.5 3.359375 7.5 7.5 0 4.144531-3.359375 7.5-7.5 7.5zm0 0" fill="#fd6f71"/><path d="m412.496094 338.828125h-7.730469l-17.113281-208.855469c-1.34375-16.421875-15.304688-29.289062-31.78125-29.289062h-45.289063c-15.015625-12.710938-32.21875-22.203125-50.648437-28.105469v-27.148437c0-25.050782-20.382813-45.429688-45.433594-45.429688s-45.429688 20.378906-45.429688 45.429688v27.148437c-18.433593 5.902344-35.636718 15.398437-50.648437 28.105469h-45.292969c-16.476562 0-30.4375 12.867187-31.78125 29.289062l-4.820312 58.789063c-.335938 4.125 2.734375 7.746093 6.863281 8.085937.210937.015625.417969.023438.621094.023438 3.867187 0 7.148437-2.96875 7.46875-6.886719l4.816406-58.789063c.710937-8.699218 8.105469-15.511718 16.835937-15.511718h29.945313c-21.261719 24-34.222656 54.195312-36.855469 86.484375l-11.148437 136.660156h-15.789063l9.992188-121.949219c.335937-4.128906-2.734375-7.75-6.863282-8.089844-4.121093-.332031-7.75 2.738282-8.089843 6.863282l-10.089844 123.175781h-7.730469c-9.101562 0-16.503906 7.402344-16.503906 16.5v105.921875c0 27.984375 22.765625 50.75 50.75 50.75h327.5c27.980469 0 50.75-22.765625 50.75-50.75v-105.921875c0-9.097656-7.402344-16.5-16.503906-16.5zm-56.625-223.140625c8.726562 0 16.121094 6.8125 16.832031 15.507812l17.015625 207.632813h-15.792969l-11.148437-136.660156c-2.632813-32.289063-15.59375-62.484375-36.855469-86.484375h29.949219zm-171.800782-70.257812c0-16.777344 13.648438-30.429688 30.429688-30.429688s30.433594 13.652344 30.433594 30.429688v23.195312c-9.929688-2.066406-20.117188-3.132812-30.433594-3.132812s-20.503906 1.066406-30.429688 3.132812zm-133.320312 451.570312c-19.710938 0-35.75-16.039062-35.75-35.75v-105.921875c0-.828125.675781-1.5 1.503906-1.5h14.601563.046875.039062 22.660156l-6.832031 83.769531c-1.554687 19.101563 5 38.136719 17.988281 52.230469 2.398438 2.601563 4.984376 4.992187 7.722657 7.171875zm262.648438 0h-197.796876c-15.207031 0-29.257812-6.15625-39.5625-17.339844-10.308593-11.183594-15.304687-25.6875-14.066406-40.84375l19.203125-235.429687c5.617188-68.914063 64.179688-122.894531 133.324219-122.894531s127.707031 53.980468 133.328125 122.894531l19.199219 235.429687c1.238281 15.15625-3.757813 29.660156-14.0625 40.84375-10.308594 11.183594-24.359375 17.339844-39.566406 17.339844zm100.601562-35.75c0 19.710938-16.035156 35.75-35.75 35.75h-21.980469c2.738281-2.179688 5.324219-4.570312 7.722657-7.175781 12.988281-14.089844 19.542968-33.125 17.988281-52.226563l-6.832031-83.769531h22.660156.039062.046875 14.601563c.828125 0 1.503906.671875 1.503906 1.5zm0 0"/><path d="m224.757812 238.445312c-2.109374 3.664063-6.039062 5.941407-10.257812 5.941407s-8.148438-2.277344-10.257812-5.941407c-2.0625-3.589843-6.648438-4.828124-10.238282-2.765624-3.59375 2.066406-4.828125 6.648437-2.765625 10.242187 4.777344 8.304687 13.6875 13.464844 23.261719 13.464844s18.484375-5.160157 23.261719-13.464844c2.0625-3.589844.828125-8.175781-2.765625-10.238281-3.585938-2.066406-8.175782-.828125-10.238282 2.761718zm0 0"/><path d="m278.1875 203.753906c-4.140625 0-7.5 3.359375-7.5 7.5v11.355469c0 4.144531 3.359375 7.5 7.5 7.5 4.144531 0 7.5-3.355469 7.5-7.5v-11.355469c0-4.140625-3.355469-7.5-7.5-7.5zm0 0"/><path d="m143.3125 211.253906v11.355469c0 4.144531 3.355469 7.5 7.5 7.5 4.140625 0 7.5-3.355469 7.5-7.5v-11.355469c0-4.140625-3.359375-7.5-7.5-7.5-4.144531 0-7.5 3.359375-7.5 7.5zm0 0"/><path d="m108.164062 213.113281c4.136719.335938 7.75-2.738281 8.085938-6.863281 2.019531-24.746094 13.183594-47.640625 31.4375-64.46875 18.257812-16.828125 41.984375-26.09375 66.8125-26.09375s48.554688 9.265625 66.8125 26.09375c18.253906 16.828125 29.421875 39.722656 31.4375 64.464844l.242188 2.980468c.320312 3.917969 3.601562 6.890626 7.46875 6.890626.203124 0 .40625-.007813.613281-.023438 4.128906-.335938 7.203125-3.957031 6.867187-8.085938l-.242187-2.976562c-2.324219-28.511719-15.1875-54.890625-36.222657-74.277344-21.035156-19.390625-48.371093-30.066406-76.976562-30.066406s-55.945312 10.675781-76.976562 30.066406c-21.035157 19.386719-33.898438 45.765625-36.226563 74.277344-.335937 4.125 2.738281 7.746094 6.867187 8.082031zm0 0"/><path d="m340.574219 308.894531c-.996094-11.089843-10.144531-19.453125-21.28125-19.453125h-209.585938c-11.136719 0-20.285156 8.363282-21.28125 19.453125l-4.488281 49.882813c-.902344 10.042968 5.339844 19.242187 14.761719 22.253906l-3.8125 55.949219c-.464844 6.839843 1.953125 13.636719 6.632812 18.648437 4.679688 5.007813 11.296875 7.882813 18.152344 7.882813h138.839844c4.140625 0 7.5-3.359375 7.5-7.5 0-4.144531-3.359375-7.5-7.5-7.5h-138.839844c-2.757813 0-5.3125-1.109375-7.191406-3.125-1.882813-2.015625-2.816407-4.636719-2.628907-7.386719l3.664063-53.726562 78.953125 16.644531c7.230469 1.523437 14.644531 2.296875 22.03125 2.296875s14.800781-.773438 22.03125-2.296875l78.953125-16.644531 3.664063 53.726562c.1875 2.75-.746094 5.371094-2.628907 7.386719-1.878906 2.015625-4.433593 3.125-7.191406 3.125h-22.816406c-4.144531 0-7.5 3.355469-7.5 7.5 0 4.140625 3.355469 7.5 7.5 7.5h22.816406c6.855469 0 13.472656-2.875 18.152344-7.882813 4.683593-5.011718 7.097656-11.808594 6.632812-18.648437l-3.8125-55.949219c9.421875-3.011719 15.664063-12.210938 14.761719-22.253906zm-15.480469 58.027344-91.65625 19.316406c-12.429688 2.621094-25.445312 2.621094-37.875 0l-91.65625-19.316406c-3.15625-.664063-5.316406-3.589844-5.027344-6.800781l4.484375-49.882813c.296875-3.304687 3.023438-5.796875 6.34375-5.796875h209.585938c3.316406 0 6.042969 2.492188 6.34375 5.796875l4.484375 49.882813c.289062 3.210937-1.871094 6.136718-5.027344 6.800781zm0 0"/></svg>