<svg id="Capa_1" enable-background="new 0 0 512 512" height="512" viewBox="0 0 512 512" width="512" xmlns="http://www.w3.org/2000/svg"><g><g><path d="m256 20.085c-121.557 0-176.918 48.839-150.106 93.569 3.555 5.93 5.327 12.76 5.327 19.674v91.273h289.557v-91.273c0-6.914 1.773-13.744 5.327-19.674 26.813-44.73-28.548-93.569-150.105-93.569z" fill="#e3986d"/><path d="m371.621 89.869c-2.454-3.172-8.977-9.173-23.046-15.074-16.017-6.716-45.079-14.723-92.575-14.723s-76.558 8.007-92.574 14.724c-14.07 5.901-20.592 11.901-23.047 15.073-.716.925-.801 2.2-.201 3.204.005.008.009.015.014.023 7.207 12.024 11.016 25.936 11.016 40.232v91.272h209.583v-91.272c0-14.296 3.809-28.208 11.017-40.233.005-.008.009-.015.014-.023.599-1.003.514-2.278-.201-3.203z" fill="#e8a882"/><path d="m90.051 416.362v51.091c0 13.51 10.952 24.461 24.461 24.461h28.629c13.51 0 24.461-10.952 24.461-24.461v-51.091z" fill="#c7c5cb"/><path d="m120.05 467.453v-51.091h-30v51.091c0 13.51 10.952 24.462 24.462 24.462h28.629c.23 0 .457-.011.686-.018-13.192-.364-23.777-11.164-23.777-24.444z" fill="#b2b0bc"/><path d="m421.949 416.362v51.091c0 13.51-10.952 24.461-24.461 24.461h-28.629c-13.51 0-24.461-10.952-24.461-24.461v-51.091z" fill="#c7c5cb"/><path d="m374.398 467.453v-51.091h-30v51.091c0 13.51 10.952 24.462 24.462 24.462h28.629c.23 0 .457-.011.686-.018-13.193-.364-23.777-11.164-23.777-24.444z" fill="#b2b0bc"/><path d="m455.615 376.81v24.132c0 26.102-21.153 47.255-47.255 47.255h-304.721c-26.102 0-47.255-21.153-47.255-47.255v-24.132l199.616-25.959z" fill="#6a647f"/><path d="m56.385 376.81v24.132c0 26.102 21.153 47.255 47.255 47.255h30c-26.102 0-47.255-21.153-47.255-47.255v-24.132z" fill="#4f4c5f"/><path d="m27.63 254.21c-11.117 0-20.13 9.012-20.13 20.13v8.046c0 11.117 9.012 20.13 20.13 20.13h66.239v-48.306z" fill="#6a647f"/><path d="m484.37 254.21c11.117 0 20.13 9.012 20.13 20.13v8.046c0 11.117-9.012 20.13-20.13 20.13h-66.239v-48.306z" fill="#6a647f"/><path d="m400.779 167.191c-11.15-3.43-22.984-5.281-35.244-5.281h-219.069c-12.26 0-24.094 1.851-35.244 5.281v57.41h289.557z" fill="#d97c40"/><path d="m151.208 161.91h209.583v62.691h-209.583z" fill="#e3986d"/><path d="m455.615 282.001v94.809h-399.23v-94.809c0-49.754 40.327-90.091 90.081-90.091h219.069c49.753 0 90.08 40.337 90.08 90.091z" fill="#ffbdd7"/><path d="m176.466 191.91h-30c-49.754 0-90.081 40.337-90.081 90.091v94.809h30v-94.809c0-49.754 40.327-90.091 90.081-90.091z" fill="#ff97c0"/><circle cx="166.285" cy="278.363" fill="#ececec" r="33.949"/></g><g><path d="m166.284 319.812c22.855 0 41.45-18.594 41.45-41.449s-18.594-41.449-41.45-41.449c-22.855 0-41.449 18.594-41.449 41.449s18.594 41.449 41.449 41.449zm0-67.899c14.584 0 26.45 11.865 26.45 26.449s-11.865 26.449-26.45 26.449c-14.584 0-26.449-11.865-26.449-26.449 0-14.583 11.865-26.449 26.449-26.449z"/><path d="m202.386 111.076c-10.75 0-19.496 8.745-19.496 19.495 0 4.143 3.358 7.5 7.5 7.5s7.5-3.357 7.5-7.5c0-2.479 2.017-4.495 4.496-4.495s4.496 2.017 4.496 4.495c0 4.143 3.358 7.5 7.5 7.5s7.5-3.357 7.5-7.5c-.001-10.749-8.746-19.495-19.496-19.495z"/><path d="m290.118 130.572c0 4.143 3.358 7.5 7.5 7.5s7.5-3.357 7.5-7.5c0-2.479 2.017-4.495 4.496-4.495s4.496 2.017 4.496 4.495c0 4.143 3.358 7.5 7.5 7.5s7.5-3.357 7.5-7.5c0-10.75-8.746-19.495-19.496-19.495s-19.496 8.745-19.496 19.495z"/><path d="m273.652 138.939c-3.122-2.722-7.86-2.397-10.582.726-1.786 2.05-4.363 3.225-7.071 3.225s-5.284-1.175-7.07-3.224c-2.722-3.123-7.459-3.448-10.582-.727-3.123 2.722-3.448 7.459-.727 10.582 4.635 5.319 11.334 8.369 18.378 8.369s13.743-3.05 18.378-8.369c2.724-3.123 2.398-7.861-.724-10.582z"/><path d="m27.63 310.016h21.255v90.926c0 22.721 13.913 42.25 33.666 50.526v15.985c0 17.624 14.338 31.961 31.961 31.961h28.629c17.624 0 31.961-14.338 31.961-31.961v-11.756h161.796v11.756c0 17.624 14.338 31.961 31.961 31.961h28.628c17.624 0 31.961-14.338 31.961-31.961v-15.985c19.752-8.275 33.666-27.805 33.666-50.526v-90.926h21.255c15.235 0 27.63-12.395 27.63-27.63v-8.046c0-15.235-12.395-27.63-27.63-27.63h-27.86c-8.924-22.93-26.276-41.68-48.232-52.424v-60.957c0-5.698 1.473-11.168 4.261-15.818 9.763-16.289 10.217-33.951 1.276-49.733-9.292-16.403-28.168-30.162-54.588-39.79-27.651-10.077-63.346-15.403-103.226-15.403s-75.575 5.326-103.227 15.402c-26.42 9.628-45.296 23.387-54.588 39.79-8.94 15.782-8.487 33.444 1.277 49.733 2.787 4.649 4.26 10.119 4.26 15.818v60.957c-21.956 10.745-39.308 29.495-48.232 52.425h-27.86c-15.235 0-27.63 12.395-27.63 27.63v8.046c0 15.235 12.395 27.63 27.63 27.63zm132.472 157.437c0 9.353-7.609 16.961-16.961 16.961h-28.629c-9.353 0-16.961-7.609-16.961-16.961v-12.095c1.829.203 4.038.338 6.089.338h56.463v11.757zm254.347-12.094v12.095c0 9.353-7.609 16.961-16.961 16.961h-28.628c-9.353 0-16.961-7.609-16.961-16.961v-11.756h56.462c2.016-.001 4.222-.132 6.088-.339zm46.548-193.649h23.374c6.964 0 12.63 5.666 12.63 12.63v8.046c0 6.964-5.666 12.63-12.63 12.63h-21.255v-13.015c-.001-6.983-.778-13.945-2.119-20.291zm-342.276-73.301v-55.081c0-8.415-2.211-16.552-6.394-23.53-7.064-11.785-7.431-23.436-1.091-34.628 13.032-23.004 57.904-47.585 144.764-47.585s131.732 24.581 144.764 47.585c6.34 11.192 5.973 22.843-1.091 34.628-4.184 6.979-6.395 15.116-6.395 23.53v55.081c-2.632-.781-5.297-1.434-7.984-1.987-5.42-1.117-11.314-1.816-17.003-1.971v-51.123c0-12.938 3.441-25.517 9.95-36.377.007-.012.014-.024.021-.036 2.193-3.676 1.915-8.242-.709-11.635-2.764-3.574-9.829-10.586-26.079-17.401-5.327-2.234-11.226-4.27-17.532-6.051-3.984-1.125-8.13 1.193-9.256 5.179-1.125 3.986 1.193 8.13 5.179 9.256 5.722 1.616 11.041 3.449 15.808 5.448 9.922 4.161 15.309 8.164 17.956 10.585-6.774 12.464-10.338 26.573-10.338 41.031v51.082h-194.583v-51.082c0-14.459-3.564-28.568-10.337-41.031 2.646-2.421 8.032-6.424 17.955-10.585 15.382-6.451 43.426-14.14 89.674-14.14 16.267 0 31.528.969 45.361 2.88 4.102.568 7.889-2.299 8.456-6.402.567-4.104-2.299-7.889-6.403-8.456-14.51-2.005-30.463-3.022-47.414-3.022-48.742 0-78.823 8.324-95.475 15.307-16.251 6.816-23.314 13.828-26.076 17.399-2.627 3.394-2.905 7.962-.71 11.64.015.023.029.047.043.071 6.494 10.851 9.926 23.416 9.926 36.339v51.123c-5.816.159-11.441.833-17.013 1.973-2.683.554-5.345 1.207-7.974 1.986zm27.744 11.001h219.069c36.956 0 68.317 24.405 78.824 57.946 5.461 17.431 3.238 29.801 3.757 45.16v66.794h-301.16c-4.142 0-7.5 3.358-7.5 7.5s3.358 7.5 7.5 7.5h301.16v16.632c0 18.062-12.112 33.338-28.637 38.161-3.677 1.069-7.52 1.594-11.118 1.594h-304.721c-3.472 0-7.284-.478-11.115-1.593-16.526-4.822-28.639-20.099-28.639-38.162v-16.632h53.07c4.142 0 7.5-3.358 7.5-7.5s-3.358-7.5-7.5-7.5h-53.07v-66.794c.507-15.762-1.685-27.732 3.757-45.162 10.507-33.54 41.868-57.944 78.823-57.944zm-131.465 74.93c0-6.964 5.666-12.63 12.63-12.63h23.374c-1.359 6.407-2.119 13.39-2.119 20.291v13.015h-21.255c-6.964 0-12.63-5.666-12.63-12.63z"/></g></g></svg>