<svg height="512" viewBox="0 0 60 56" width="512" xmlns="http://www.w3.org/2000/svg"><g id="Page-1" fill="none" fill-rule="evenodd"><g id="012---Toast-and-Orange" fill-rule="nonzero"><g id="Icons_copy" transform="translate(1 1)"><path id="Shape" d="m36 20.24c-2-3.85-7-6.84-13.24-7.86-1.4089311-.2296063-2.8326744-.3566068-4.26-.38-10.14.17-18.25 5.34-18.45 11.75.02277318 2.9405903 1.22201845 5.7496333 3.33 7.8.4026521.3737441.62796358.9006823.62 1.45v17c0 2.209139 1.790861 4 4 4h21c2.209139 0 4-1.790861 4-4v-17c-.0079636-.5493177.2173479-1.0762559.62-1.45 2.1263821-2.0420139 3.3440922-4.852114 3.38-7.8-.0671131-1.2299833-.4088065-2.4293274-1-3.51zm-7.4 22.65c.2827967 1.0059336.2478705 2.0746764-.1 3.06-.4553104.8439003-1.2744518 1.4305826-2.22 1.59-1.0449427.1381639-2.1075505-.0285197-3.06-.48-1.0209527-.4096461-2.1348766-.5307248-3.22-.35-1.2332929.2938343-2.4432401.6782098-3.62 1.15-1.11.36-2.25.67-3.4.94-2 .48-4.15.12-4.66-2.09-.21050437-1.6077558-.08796385-3.2416293.36-4.8.6-3.1.08-6-.32-9.13-.35136678-2.7247741 1.473459-5.254149 4.17-5.78.9251251-.1750542 1.8748749-.1750542 2.8 0 1.24.19 2.39.39 3.29-.65.2-.23.38-.46.56-.69 1.25-1.63 2.67-2.76 4.91-2.45 1.9126275.2101157 3.5006017 1.5718036 4 3.43.33 1.35-.24 2.75-.29 4.12.0734318 1.2952029.3501471 2.5707932.82 3.78.1133412.3916911.206794.7888654.28 1.19.0887846 1.3433886-.0292578 2.692445-.35 4-.1476355 1.0498542-.1273826 2.1165069.06 3.16z" fill="#ffe0b2"/><path id="Shape" d="m36 20.24c-2-3.85-7-6.84-13.24-7.86-1.4089311-.2296063-2.8326744-.3566068-4.26-.38-.53 0-1 0-1.56.07 1 .06 1.91.15 2.83.3 6.23 1.03 11.23 4.02 13.23 7.87.5911935 1.0806726.9328869 2.2800167 1 3.51-.0227732 2.9405903-1.2220184 5.7496333-3.33 7.8-.4211811.3647037-.6652362.8928828-.67 1.45v17c0 2.209139-1.790861 4-4 4h3c2.209139 0 4-1.790861 4-4v-17c-.0079636-.5493177.2173479-1.0762559.62-1.45 2.1263821-2.0420139 3.3440922-4.852114 3.38-7.8-.0671131-1.2299833-.4088065-2.4293274-1-3.51z" fill="#dfc49c"/><path id="Shape" d="m28.61 42.89c.2827967 1.0059336.2478705 2.0746764-.1 3.06-.4553104.8439003-1.2744518 1.4305826-2.22 1.59-1.0449427.1381639-2.1075505-.0285197-3.06-.48-1.0239906-.4114928-2.141634-.5325997-3.23-.35-1.2332929.2938343-2.4432401.6782098-3.62 1.15-1.11.36-2.25.67-3.4.94-2 .48-4.15.12-4.66-2.09-.21050437-1.6077558-.08796385-3.2416293.36-4.8.6-3.1.08-6-.32-9.13-.35136678-2.7247741 1.473459-5.254149 4.17-5.78.9251251-.1750542 1.8748749-.1750542 2.8 0 1.24.19 2.39.39 3.29-.65.2-.23.38-.46.56-.69 1.25-1.63 2.67-2.76 4.91-2.45 1.9126275.2101157 3.5006017 1.5718036 4 3.43.33 1.35-.24 2.75-.29 4.12.0734318 1.2952029.3501471 2.5707932.82 3.78.1133412.3916911.206794.7888654.28 1.19.0887846 1.3433886-.0292578 2.692445-.35 4-.1476355 1.0498542-.1273826 2.1165069.06 3.16z" fill="#ffdc00"/><path id="Shape" d="m28.51 39.76c.3207422-1.307555.4387846-2.6566114.35-4-.073206-.4011346-.1666588-.7983089-.28-1.19-.4698529-1.2092068-.7465682-2.4847971-.82-3.78 0-1.37.62-2.77.29-4.12-.4993983-1.8581964-2.0873725-3.2198843-4-3.43-.7254874-.1121132-1.4674318-.0434146-2.16.2 1.5316527.4596577 2.7136673 1.6833459 3.12 3.23.33 1.35-.24 2.75-.29 4.12.0734318 1.2952029.3501471 2.5707932.82 3.78.1133412.3916911.206794.7888654.28 1.19.0887846 1.3433886-.0292578 2.692445-.35 4-.1312523 1.0421105-.0975052 2.0983929.1 3.13.2827967 1.0059336.2478705 2.0746764-.1 3.06-.312016.6188938-.8326527 1.1076547-1.47 1.38.7363326.2644567 1.5279499.3367348 2.3.21.9322883-.1511322 1.7453858-.7177251 2.21-1.54.3478705-.9853236.3827967-2.0540664.1-3.06-.2028236-1.0478711-.2365841-2.1214557-.1-3.18z" fill="#fec108"/><path id="Shape" d="m57 20.9-1.8 31.21c-.0584638 1.0613921-.9370001 1.8916089-2 1.89l-24.2.0000023c2.209139-.0000023 4-1.7908633 4-4.0000023v-17c-.0079636-.5493177.2173479-1.0762559.62-1.45 2.1263821-2.0420139 3.3440922-4.852114 3.38-7.8-.0671131-1.2299833-.4088065-2.4293274-1-3.51h1.08c4.47-.3 8.81-3.3 13.38-2.61 1.2622915.1922724 2.4808848.6052401 3.6 1.22 1.06995.5443131 2.0593511 1.2342016 2.94 2.05z" fill="#ff9801"/><path id="Shape" d="m57 20.9-1.8 31.21c-.0584638 1.0613921-.9370001 1.8916089-2 1.89l-3 .0000023c1.0629999.0016066 1.9415362-.8286102 2-1.8900023l1.87-33.31c1.0694518.5605334 2.0555971 1.267327 2.93 2.1z" fill="#f57c00"/><path id="Shape" d="m58 2.11-1 18.79c-1.7667601-1.7473038-4.0297499-2.9067368-6.48-3.32-4.57-.69-8.91 2.31-13.38 2.61h-1.08c-2-3.85-7-6.84-13.24-7.86l-.63-10.22c-.0303607-.55096348.1682592-1.08999035.5488577-1.48952415.3805986-.39953381.9093547-.62407072 1.4611423-.62047585h31.8c.5500535-.00083262 1.0761694.22491299 1.4545712.62412683.3784017.39921385.5756824.93665163.5454288 1.48587317z" fill="#00bcd4"/><path id="Shape" d="m56 0-3-.0000023c.5500535-.00083032 1.0761694.22491529 1.4545712.62412913.3784017.39921385.5756824.93665163.5454288 1.48587317l-.93 16.69c1.0680376.5628252 2.0538811 1.2694025 2.93 2.1l1-18.79c.0302536-.54922154-.1670271-1.08665932-.5454288-1.48587317-.3784018-.39921384-.9045177-.62495945-1.4545712-.62412683z" fill="#00838f"/></g><g id="Layer_2"><g fill="#000"><path id="Shape" d="m.05 24.79c.01746288 3.2122979 1.33832315 6.2798695 3.66 8.5.19429526.1839341.29996249.4426367.29.71v17c0 2.7614237 2.23857625 5 5 5h45.19c1.5926735.0025591 2.9097504-1.2398835 3-2.83l2.8-50c.042428-.82110156-.2540022-1.62363229-.82-2.22-.562394-.60092714-1.3469756-.94440758-2.17-.95h-31.8c-.8319504-.00527627-1.6287326.33516703-2.2.94-.5685873.59880339-.8652175 1.40549261-.82 2.23l.51 9.07c-1-.12-2.11-.21-3.22-.23-10.67.17-19.2 5.75-19.42 12.78zm27.95 29.21h-19c-1.65685425 0-3-1.3431458-3-3v-17c-.01016793-.8410972-.37298242-1.639289-1-2.2-1.88414264-1.8463046-2.96242952-4.3623073-3-7 .23-5.91 7.91-10.64 17.48-10.8 7.8.12 14.33 3.26 16.61 7.59-.0055947.0330986-.0055947.0669014 0 .1.5238617.9410094.8345221 1.9856477.91 3.06-.0217361 2.6585628-1.1012559 5.1990327-3 7.06-.6306459.5537997-.9945398 1.3507273-1 2.19v17c0 1.6568542-1.3431458 3-3 3zm27.2-1c0 .5522847-.4477153 1-1 1h-20.2c.6543771-.8627124 1.0058742-1.9172039 1-3v-17c-.0109479-.2626183.0909561-.5173784.28-.7 2.3453177-2.2130046 3.6884395-5.2855763 3.72-8.51v-.07c-.0308293-.8749671-.1891639-1.7407539-.47-2.57 1.8664565-.2526083 3.7003341-.7052106 5.47-1.35 2.52-.82 4.9-1.6 7.31-1.23 2.0940153.3536995 4.0398157 1.3092264 5.6 2.75zm-31-50c-.0150341-.27321812.0825469-.54066237.27-.74.1984986-.18125803.4616121-.27496968.73-.26h31.8c.280642-.00189905.5491655.11421924.74.32.1848897.1968864.2822758.46018937.27.73l-.94 16.82c-1.6035458-1.1865012-3.4696722-1.9686277-5.44-2.28-2.88-.43-5.6.45-8.23 1.31-1.7413076.6464696-3.5545144 1.0796245-5.4 1.29h-.48c-2.23-3.67-6.94-6.51-12.82-7.65z"/><path id="Shape" d="m17 16.82c-.1012084-.5400738-.6192115-.8973173-1.16-.8-.5.08-11.84 2.23-11.84 9.98 0 .5522847.44771525 1 1 1s1-.4477153 1-1c0-6.08 10.08-8 10.18-8 .2672943-.0436543.5054507-.1938605.6600049-.4162678.1545542-.2224072.2122869-.4979926.1599951-.7637322z"/><path id="Shape" d="m30.62 43.89v-.16c-.1856533-.9250276-.2194287-1.8741153-.1-2.81 0-.26.08-.52.13-.77.2720312-1.1762499.3430337-2.3900555.21-3.59-.0737351-.4422687-.1739147-.8797199-.3-1.31-.07-.24-.15-.5-.23-.75-.330229-.8706668-.5160087-1.7894322-.55-2.72.0336867-.4564289.0937874-.910523.18-1.36.2356102-.9834755.2628606-2.0053652.08-3-.588425-2.2455119-2.4861662-3.9055402-4.79-4.19-2.93-.41-4.67 1.3-5.84 2.83-.17.21-.34.43-.52.64-.48.55-1 .53-2.39.32-1.0534932-.1862301-2.1328824-.1692585-3.18.05-3.1775074.6493325-5.31252214 3.6444656-4.89 6.86l.14 1c.48686643 2.5622836.55104825 5.1869824.19 7.77l-.1.48c-.41595223 1.541396-.50115038 3.1533449-.25 4.73.1763706.9956201.7504209 1.8765526 1.59 2.44.7400806.4398466 1.5893528.6616973 2.45.64.5931469-.005825 1.18367-.0796404 1.76-.22 1.35-.32 2.45-.62 3.49-1l1.11-.4c.7636669-.307292 1.5535474-.5449255 2.36-.71.8965471-.1467851 1.8161449-.0465282 2.66.29 1.1306794.5208634 2.3865321.7082005 3.62.54 1.2545786-.223907 2.3337056-1.0184697 2.92-2.15.4419679-1.0955824.5294-2.3021445.25-3.45zm-2 .16v.16c.2251699.7501336.2251699 1.5498664 0 2.3-.3195975.5594723-.8742628.9451667-1.51 1.05-.8646882.0939981-1.7383279-.0585422-2.52-.44-1.1775253-.4676687-2.4609655-.6025856-3.71-.39-.9254777.1849335-1.83246.4526774-2.71.8l-1.05.38c-1 .32-2 .61-3.32.91-.8852537.2906696-1.8483821.2298027-2.69-.17-.4057922-.2619776-.6818643-.6833508-.76-1.16-.1794269-1.3041551-.090957-2.6312038.26-3.9l.1-.49c.4056152-2.7969885.3481812-5.6416629-.17-8.42l-.14-1c-.2853616-2.1976149 1.1777355-4.2415833 3.35-4.68.3805764-.0866482.7696845-.1302551 1.16-.13.4491545.0041515.8972546.0442798 1.34.12 1.28.19 2.88.44 4.13-1 .21-.24.4-.48.59-.73 1.31-1.71 2.43-2.29 4-2.07 1.486051.1730436 2.7194289 1.2285305 3.12 2.67.1166991.7386939.0861119 1.4931768-.09 2.22-.1068911.5379411-.1770532 1.0825323-.21 1.63.0223664 1.1578277.2386985 2.3037117.64 3.39.08.24.15.48.22.71.104283.3480622.1877639.702021.25 1.06.0861736.9816204.0152837 1.9707025-.21 2.93-.05.27-.09.54-.14.81-.1572554 1.1432396-.1336332 2.304104.07 3.44z"/></g><path id="Shape" d="m16 31c-1.0699851-.0307097-2.1053413.3808482-2.8622466 1.1377534-.7569052.7569053-1.1684631 1.7922615-1.1377534 2.8622466 0 .5522847.4477153 1 1 1s1-.4477153 1-1c-.0324436-.5397267.1678295-1.0675039.5501628-1.4498372s.9101105-.5826064 1.4498372-.5501628c.5522847 0 1-.4477153 1-1s-.4477153-1-1-1z" fill="#f5f5f5"/><path id="Shape" d="m30 4h-2c-.5522847 0-1 .44771525-1 1s.4477153 1 1 1h2c.5522847 0 1-.44771525 1-1s-.4477153-1-1-1z" fill="#f5f5f5"/><path id="Shape" d="m49 5c0-.55228475-.4477153-1-1-1h-14c-.5522847 0-1 .44771525-1 1s.4477153 1 1 1h14c.5522847 0 1-.44771525 1-1z" fill="#f5f5f5"/></g></g></g></svg>