<svg height="503pt" viewBox="-33 0 503 503.60661" width="503pt" xmlns="http://www.w3.org/2000/svg"><path d="m159.734375 436.753906-6.296875 44.316406c-1.167969 8.28125-8.253906 14.433594-16.617188 14.4375h-21.234374c-.648438.027344-1.296876-.03125-1.929688-.167968-7.589844-.832032-13.640625-6.710938-14.691406-14.269532l-6.378906-44.316406zm0 0" fill="#cfd8dc"/><path d="m134.722656 436.753906-6.296875 44.316406c-1.101562 7.566407-7.171875 13.429688-14.769531 14.269532-7.589844-.832032-13.640625-6.710938-14.691406-14.269532l-6.378906-44.316406zm0 0" fill="#f4f4f4"/><path d="m243.25 19.429688-16.535156 39.28125-5.121094 113.984374-.753906 16.703126-.757813 16.367187-.753906 16.871094v.082031l-8.476563 189.691406c-.65625 13.5-11.835937 24.085938-25.347656 24.007813h-118.601562c-13.53125.078125-24.730469-10.492188-25.429688-24.007813l-5.039062-112.386718v-.082032l-.753906-16.957031-.167969-2.9375-.753907-16.535156-8.816406-196.40625-.335937-8.394531-3.273438-7.71875-13.175781-31.5625c-.890625-2.621094-.425781-5.511719 1.234375-7.726563 1.660156-2.21875 4.308594-3.46875 7.074219-3.351563h217.476562c2.746094-.066406 5.359375 1.199219 7.007813 3.398438 1.648437 2.199219 2.132812 5.0625 1.300781 7.679688zm0 0" fill="#c52828"/><path d="m218.238281 19.429688-16.535156 39.28125-5.121094 113.984374-.753906 16.703126-.757813 16.367187-.753906 16.871094v.082031l-8.476562 189.691406c-.65625 13.5-11.835938 24.085938-25.351563 24.007813h-93.585937c-13.53125.078125-24.730469-10.492188-25.429688-24.007813l-5.039062-112.386718v-.082032l-.753906-16.957031-.167969-2.9375-.753907-16.535156-8.816406-196.40625-.335937-8.394531-3.273438-7.71875-13.175781-31.5625c-.890625-2.621094-.425781-5.511719 1.234375-7.726563 1.660156-2.21875 4.308594-3.46875 7.074219-3.351563h192.460937c2.75-.066406 5.363281 1.199219 7.011719 3.398438s2.132812 5.0625 1.300781 7.679688zm0 0" fill="#f44335"/><path d="m428.324219 50.320312v151.082032c0 4.632812-3.757813 8.390625-8.394531 8.390625h-92.160157v-167.867188h92.160157c4.636718 0 8.394531 3.757813 8.394531 8.394531zm0 0" fill="#00838f"/><path d="m403.144531 50.320312v151.082032c0 4.632812-3.757812 8.390625-8.394531 8.390625h-66.980469v-167.867188h66.980469c4.636719 0 8.394531 3.757813 8.394531 8.394531zm0 0" fill="#00bcd4"/><path d="m386.355469 321.929688v148.0625c0 13.90625-11.273438 25.179687-25.179688 25.179687-4.394531.023437-8.714843-1.136719-12.503906-3.359375-7.855469-4.453125-12.695313-12.792969-12.675781-21.820312v-142.691407l-39.699219-87.289062c-1.496094-3.265625-2.269531-6.816407-2.265625-10.410157v-196.070312c0-13.90625 11.273438-25.179688 25.179688-25.179688s25.179687 11.273438 25.179687 25.179688v190.617188l39.699219 87.289062c1.503906 3.292969 2.277344 6.875 2.265625 10.492188zm0 0" fill="#c52828"/><path d="m361.34375 321.929688v148.0625c.023438 9.027343-4.820312 17.367187-12.671875 21.820312-7.855469-4.453125-12.695313-12.792969-12.675781-21.820312v-142.691407l-39.699219-87.289062c-1.496094-3.265625-2.269531-6.816407-2.265625-10.410157v-196.070312c.019531-9.015625 4.851562-17.335938 12.671875-21.824219 7.820313 4.488281 12.65625 12.808594 12.675781 21.824219v190.617188l39.699219 87.289062c1.503906 3.292969 2.277344 6.875 2.265625 10.492188zm0 0" fill="#f44335"/><path d="m221.175781 181.761719-1.429687 31.726562c-60.011719 16.535157-52.878906 72.265625-114.402344 84.183594-7.929688 1.550781-16.011719 2.199219-24.089844 1.933594-15.46875-.359375-30.765625-3.339844-45.238281-8.816407l-.839844-19.050781c11.21875-1.542969 22.105469-4.917969 32.230469-9.988281 9.128906-4.632812 17.4375-10.730469 24.59375-18.046875 32.566406-32.816406 38.691406-56.824219 68.40625-64.710937 8.238281-2.015626 16.703125-2.945313 25.179688-2.773438 12.074218.039062 24.074218 1.90625 35.589843 5.542969zm0 0" fill="#cfd8dc"/><path d="m193.476562 184.53125-1.425781 31.726562c-58.839843 16.199219-53.132812 70.085938-110.796875 83.347657-15.46875-.359375-30.765625-3.339844-45.238281-8.816407l-.839844-19.050781c11.21875-1.542969 22.105469-4.917969 32.230469-9.988281 9.128906-4.632812 17.4375-10.730469 24.59375-18.046875 32.566406-32.816406 38.691406-56.824219 68.40625-64.710937 11.226562.296874 22.359375 2.160156 33.070312 5.539062zm0 0" fill="#f4f4f4"/><path d="m17.296875 60.609375 15.804687 352.164063c.84375 18.015624 15.738282 32.167968 33.777344 32.078124h18.464844l5.304688 37.132813c1.820312 12.378906 12.414062 21.570313 24.929687 21.621094h21.242187c12.511719-.054688 23.101563-9.242188 24.929688-21.621094l5.304688-37.132813h18.464843c18.039063.097657 32.941407-14.058593 33.773438-32.078124l15.773437-352.164063 16.089844-38.410156c1.78125-5.046875.980469-10.652344-2.148438-14.996094-3.257812-4.535156-8.503906-7.21875-14.085937-7.203125h-217.488281c-5.582032-.015625-10.824219 2.667969-14.078125 7.203125-3.199219 4.507813-3.933594 10.316406-1.964844 15.484375zm53.960937 208.644531c9.882813-5.089844 18.898438-11.703125 26.71875-19.597656 9.730469-9.96875 18.832032-20.53125 27.253907-31.628906 17.421875-22.226563 26.167969-33.371094 60.371093-33.371094 9.074219-.074219 18.125.929688 26.960938 2.996094l-.898438 19.976562c-28.476562 9.375-42.460937 27.445313-54.714843 43.605469-13.3125 17.574219-24.828125 32.734375-53.183594 38.238281-19.925781 3.648438-40.453125 2.074219-59.59375-4.566406l-.277344-6.09375c9.511719-1.941406 18.714844-5.160156 27.363281-9.558594zm73.863282 210.355469c-.589844 4.132813-4.125 7.207031-8.300782 7.210937h-21.261718c-4.175782-.003906-7.710938-3.078124-8.300782-7.210937l-4.96875-34.757813h47.785157zm57.386718-67.582031c-.449218 9.039062-7.953124 16.117187-17.003906 16.039062h-118.625c-9.058594.078125-16.5625-7.003906-17.007812-16.050781l-4.910156-109.296875c12.367187 3.613281 25.183593 5.472656 38.066406 5.523438 8.035156.003906 16.050781-.761719 23.9375-2.285157 34.65625-6.714843 49.253906-25.960937 63.363281-44.578125 9.804687-15.535156 23.871094-27.925781 40.523437-35.6875zm32.984376-395.785156-16.484376 39.265624c-.152343.5-.253906 1.011719-.308593 1.535157-.152344.433593-.261719.878906-.335938 1.332031l-5.035156 112.214844c-9.117187-1.863282-18.398437-2.773438-27.699219-2.722656-42.371094 0-55.464844 16.695312-73.578125 39.804687-8.039062 10.578125-16.726562 20.648437-26.011719 30.15625-6.578124 6.644531-14.164062 12.210937-22.476562 16.492187-6.492188 3.3125-13.359375 5.832032-20.453125 7.503907l-8.714844-194.675781h158.929688c4.636719 0 8.394531-3.757813 8.394531-8.394532 0-4.636718-3.757812-8.394531-8.394531-8.394531h-162.085938l-13.804687-33.574219zm0 0"/><path d="m327.621094 329.164062v140.867188c0 18.542969 15.03125 33.574219 33.574218 33.574219 18.539063 0 33.570313-15.03125 33.570313-33.574219v-148.144531c.007813-4.789063-1.015625-9.527344-3.003906-13.890625l-38.960938-85.710938v-4.054687h67.148438c9.269531 0 16.785156-7.515625 16.785156-16.789063v-151.082031c0-9.269531-7.515625-16.785156-16.785156-16.785156h-67.148438c0-18.542969-15.03125-33.574219-33.574219-33.574219-18.542968 0-33.574218 15.03125-33.574218 33.574219v195.988281c-.003906 4.792969 1.023437 9.527344 3.015625 13.890625zm92.328125-278.804687v16.789063h-41.96875c-4.636719 0-8.394531 3.757812-8.394531 8.394531 0 4.632812 3.757812 8.390625 8.394531 8.390625h41.96875v50.363281h-41.96875c-4.636719 0-8.394531 3.757813-8.394531 8.390625 0 4.636719 3.757812 8.394531 8.394531 8.394531h41.96875v50.359375h-67.148438v-16.785156h41.964844c4.636719 0 8.394531-3.757812 8.394531-8.394531s-3.757812-8.394531-8.394531-8.394531h-41.964844v-50.359376h41.964844c4.636719 0 8.394531-3.757812 8.394531-8.394531 0-4.632812-3.757812-8.390625-8.394531-8.390625h-41.964844v-50.363281zm-117.507813-16.785156c0-9.273438 7.515625-16.789063 16.785156-16.789063 9.269532 0 16.785157 7.515625 16.785157 16.789063v190.53125c.003906 1.199219.261719 2.382812.757812 3.472656l39.683594 87.359375c.988281 2.183594 1.503906 4.554688 1.503906 6.949219v148.144531c0 9.273438-7.515625 16.789062-16.789062 16.789062-9.269531 0-16.785157-7.515624-16.785157-16.789062v-142.6875c0-1.199219-.253906-2.382812-.75-3.472656l-39.683593-87.359375c-.992188-2.183594-1.507813-4.554688-1.507813-6.949219zm0 0"/></svg>