<?xml version="1.0" encoding="iso-8859-1"?>
<!-- Generator: Adobe Illustrator 19.0.0, SVG Export Plug-In . SVG Version: 6.00 Build 0)  -->
<svg version="1.1" id="Capa_1" xmlns="http://www.w3.org/2000/svg" xmlns:xlink="http://www.w3.org/1999/xlink" x="0px" y="0px"
	 viewBox="0 0 512.001 512.001" style="enable-background:new 0 0 512.001 512.001;" xml:space="preserve">
<g>
	<path style="fill:#FED42D;" d="M401.026,392.259c-29.273-6.767-149.14-94.467-137.539-86.189c-28.46-20.76-38.83-35.06-49.18-24.71
		l-17.38,17.38c-11.04,11.04,5.54,24.85,16.15,37.59c-7.66,3.25-15.32,6.5-15.32,6.5c-17.41,7.38-35.05,9.79-52.019,8.99
		c-50.22-2.34-94.449-32.7-108.629-44.83c-0.17,0.36-0.26,0.55-0.26,0.55l-0.64,1.38c-1.49,3.19-2.91,6.4-4.27,9.63
		c-8.6,20.43-14.71,41.73-18.25,63.449h-0.01c-4.31,26.33-4.86,53.269-1.52,79.999c26.351,0,463.151,0,489.825,0
		C503.245,398.119,436.956,399.769,401.026,392.259z"/>
	<path style="fill:#FED42D;" d="M499.835,50.002c-3.514,0-486.461,0.003-489.815,0.11c-1.26,63.869,68.019,62.119,103.949,69.629
		c29.621,6.866,148.649,96.243,134.179,85.929c28.74,20.9,39.14,35.37,49.54,24.97l17.38-17.38c11.04-11.04-5.54-24.85-16.15-37.59
		c18.747-7.954,37.043-17.335,68.909-15.39c49.06,2.97,91.629,32.75,105.639,44.73c0.16-0.36,0.26-0.55,0.26-0.55l0.64-1.38
		c1.48-3.19,4.33-6.4,5.69-9.63c8.6-20.43,14.71-41.73,18.25-63.449h0.01C502.625,103.672,503.175,76.732,499.835,50.002z"/>
</g>
<path style="fill:#89593E;" d="M499.995,30.003v20h-0.16c-11.123,0-481.83,0-489.835,0c0-22.079,17.919-40,40-40h430.426
	C491.465,10.003,499.995,18.953,499.995,30.003z"/>
<path style="fill:#85E374;" d="M472.025,130.002h26.28c-3.54,21.72-9.65,43.02-18.25,63.449c-1.36,3.23-4.21,6.44-5.69,9.63
	l-0.64,1.38c0,0-0.1,0.19-0.26,0.55c-14.01-11.98-56.579-41.76-105.639-44.73l0.01-0.12l26.34-26.34
	c14.23-14.22,38.96-17.75,56.949-8.75c3.25,1.62,6.66,2.85,10.17,3.68C464.795,129.582,468.395,130.002,472.025,130.002z"/>
<path style="fill:#89593E;" d="M501.985,461.998c0,11.04-4.47,21.04-11.71,28.28c-7.24,7.24-17.24,11.72-28.28,11.72H31.57
	c-11.04,0-19.57-8.95-19.57-20v-20h0.16C12.16,461.998,498.675,462.108,501.985,461.998z"/>
<path style="fill:#85E374;" d="M145.739,351.819v0.02l-29.35,26.34c-14.22,14.22-38.95,17.75-56.949,8.75
	c-3.24-1.62-6.66-2.85-10.16-3.68c-3.51-0.83-7.11-1.25-10.74-1.25H13.69c3.54-21.72,9.65-43.02,18.25-63.449
	c1.36-3.23,2.78-6.44,4.27-9.63l0.64-1.38c0,0,0.09-0.19,0.26-0.55C51.29,319.12,95.519,349.479,145.739,351.819z"/>
<path d="M292.997,120.002c-5.52,0-10,4.48-10,10c0,5.52,4.48,10,10,10s10-4.48,10-10
	C302.997,124.482,298.517,120.002,292.997,120.002z"/>
<path d="M218.998,391.999c5.52,0,10-4.48,10-10s-4.48-10-10-10c-5.52,0-10,4.48-10,10S213.478,391.999,218.998,391.999z"/>
<path d="M479.643,401.745c-17.859-10.139-39.605-13.409-58.791-16.294c-6.404-0.963-12.455-1.873-17.667-2.958
	c-2.888-0.687-9.779-3.216-25.342-12.115l0.895-1.193c3.313-4.419,2.415-10.687-2.004-14c-4.421-3.311-10.687-2.414-14,2.004
	l-2.138,2.85c-6.801-4.226-14.199-8.967-22.125-14.177l3.396-4.528c3.313-4.419,2.415-10.688-2.005-14
	c-4.421-3.312-10.688-2.414-13.999,2.005l-4.054,5.405c-7.08-4.789-14.476-9.868-22.121-15.19l2.347-3.128
	c3.313-4.418,2.418-10.687-2-14c-4.419-3.314-10.687-2.418-14,2l-2.715,3.619c-35.416-25.169-41.575-33.307-52.288-38.006
	c-11.234-4.925-19.141-0.41-23.797,4.246l-17.379,17.38c-4.169,4.168-10.202,13.143-3.767,26.409
	c2.456,5.063,6.271,9.842,10.314,14.463l-2.55,1.082c-14.727,6.244-30.758,9.003-47.651,8.208
	c-55.396-2.579-100.693-40.811-102.594-42.437c-2.369-2.026-5.551-2.833-8.595-2.179c-3.048,0.653-5.618,2.69-6.948,5.509
	l-0.918,1.968c-1.507,3.227-2.996,6.585-4.426,9.981C3.895,359.398-4.087,409.885,2.028,461.435C2.018,461.622,2,461.808,2,461.998
	v20c0,16.822,12.989,30,29.57,30h430.426c13.35,0,25.904-5.203,35.352-14.649c9.378-9.379,14.565-21.831,14.632-35.089
	c0-0.022,0.004-0.043,0.004-0.064c0.001-0.055,0-0.108,0.001-0.163c0-0.011,0.001-0.023,0.001-0.034c0-0.004,0-0.007,0-0.011
	C512.471,434.474,501.592,414.205,479.643,401.745z M201.664,352.034l15.32-6.5c2.913-1.236,5.069-3.777,5.813-6.852
	c0.744-3.075-0.01-6.321-2.035-8.753c-1.883-2.261-3.912-4.521-5.875-6.706c-4.353-4.846-8.853-9.857-10.802-13.875
	c-1.184-2.441-0.907-2.717-0.086-3.539l17.38-17.38c0.234-0.234,0.415-0.387,0.54-0.483c5.022,0.987,16.583,12.772,49.4,36.106
	l-9.95,13.265c-3.314,4.418-2.42,10.686,1.998,14c4.421,3.315,10.689,2.417,14-1.999l10.316-13.753
	c7.634,5.317,15.031,10.403,22.116,15.201l-9.359,12.481c-3.314,4.417-2.42,10.686,1.998,14c4.415,3.313,10.686,2.421,14-1.998
	l10.015-13.355c7.877,5.188,15.27,9.943,22.1,14.207l-7.422,9.896c-3.315,4.417-2.422,10.686,1.996,14
	c4.422,3.317,10.69,2.417,14-1.997l8.63-11.505c20.039,11.619,28.399,14.438,33.021,15.506c0.068,0.016,0.137,0.031,0.206,0.045
	c5.793,1.211,12.158,2.168,18.897,3.182c40.265,6.055,69.688,13.218,73.666,46.77H293.997l21.561-28.75
	c3.313-4.418,2.418-10.686-2-14c-4.42-3.313-10.688-2.417-14,2.001l-30.561,40.75h-35l35.61-47.48c3.313-4.418,2.418-10.686-2-14
	c-4.419-3.314-10.687-2.418-14,2l-44.61,59.479h-30l29.19-38.92c3.314-4.418,2.418-10.687-2-14c-4.418-3.314-10.687-2.418-14,2
	l-38.19,50.919H21.133c-1.838-19.984-1.44-40.096,1.181-59.999H38.54c5.943,0,11.56,1.44,16.428,3.875
	c8.063,4.031,17.126,5.971,26.213,5.971c15.604,0,31.282-5.721,42.078-16.393l26.2-23.513
	C167.842,362.26,185.383,358.936,201.664,352.034z M41.037,322.714c18.591,13.36,48.383,29.742,81.724,36.31l-13.051,11.712
	c-0.134,0.12-0.265,0.244-0.392,0.371c-11.059,11.058-31.003,14.078-45.407,6.877c-7.819-3.91-16.514-5.986-25.373-5.986H25.716
	C29.231,355.139,34.367,338.611,41.037,322.714z M461.995,491.998H31.57c-5.366,0-9.57-4.393-9.57-10V472
	c66.566,0.015,400.645,0.084,468.279,0.019c-1.47,4.162-3.863,7.976-7.075,11.188C477.535,488.876,470.003,491.998,461.995,491.998z
	"/>
<path d="M509.995,30.003c0-16.822-12.989-30-29.57-30H50c-13.35,0-25.905,5.203-35.351,14.649S0,36.652,0,50.002
	c0,0.127,0.014,0.25,0.019,0.376C-0.389,77.7,10.843,97.85,33.418,110.267c18.33,10.082,40.519,13.345,60.094,16.225
	c6.666,0.98,12.966,1.907,18.292,3.015c2.727,0.651,9.112,2.991,23.154,11.041l-1.7,2.266c-3.313,4.419-2.417,10.687,2.002,14
	c4.42,3.314,10.688,2.415,14-2.002l2.9-3.866c6.709,4.224,14.069,9.021,22.003,14.339l-4.032,5.377
	c-3.315,4.417-2.421,10.686,1.997,14c4.418,3.315,10.687,2.42,14-1.997l4.584-6.112c8.068,5.576,15.6,10.893,21.948,15.421
	l-2.699,3.598c-3.314,4.417-2.42,10.686,1.998,14c4.417,3.315,10.686,2.419,14-1.998l2.921-3.894
	c32.609,23.822,41.838,33.793,52.091,38.287c9.007,3.946,17.203,2.334,23.79-4.252l17.38-17.38
	c4.169-4.168,10.201-13.143,3.766-26.41c-2.456-5.063-6.271-9.842-10.313-14.463l2.553-1.083
	c15.188-6.444,31.698-9.173,49.079-8.114c42.665,2.583,82.771,27.835,99.744,42.349c4.913,4.202,12.819,2.664,15.644-3.551
	c0.889-1.571,0.083-0.902,2.806-4.99c8.614-12.937,33.616-77.076,24.552-153.504c0.01-0.188,0.028-0.373,0.028-0.563V30.003H509.995
	z M28.792,28.794c5.668-5.669,13.2-8.791,21.208-8.791h430.426c5.366,0,9.57,4.393,9.57,10v10c-6.414,0-440.055,0-468.293,0
	C23.173,35.834,25.571,32.013,28.792,28.794z M310.331,159.965l-15.319,6.5c-2.913,1.236-5.069,3.777-5.813,6.853
	c-0.745,3.075,0.01,6.321,2.034,8.752c1.883,2.261,3.912,4.521,5.875,6.705c4.353,4.846,8.854,9.857,10.803,13.876
	c1.184,2.441,0.907,2.717,0.086,3.539l-17.38,17.38c-0.235,0.236-0.417,0.39-0.543,0.486c-4.849-0.956-24.229-18.132-49.195-36.378
	l9.749-12.997c3.313-4.418,2.418-10.686-2-14c-4.418-3.313-10.687-2.418-14,2l-9.966,13.286c-6.33-4.518-13.861-9.837-21.944-15.429
	l8.841-11.789c3.313-4.419,2.416-10.687-2.003-14c-4.419-3.312-10.687-2.415-14,2.003l-9.379,12.507
	c-7.881-5.292-15.235-10.101-21.978-14.368l6.668-8.89c3.314-4.417,2.42-10.686-1.998-14c-4.417-3.313-10.686-2.42-14,1.998
	l-7.824,10.431c-18.437-10.736-26.369-13.4-30.819-14.431c-0.07-0.017-0.141-0.032-0.212-0.047
	c-5.939-1.241-12.571-2.217-19.593-3.25c-17.904-2.633-38.197-5.618-53.366-13.962c-13.345-7.34-20.66-17.85-22.554-32.655
	c25.668-0.029,97.509-0.053,197.484-0.063l-21.549,28.728c-3.314,4.418-2.419,10.687,1.999,14c4.419,3.315,10.687,2.418,14-1.999
	l30.553-40.733c11.667-0.005,23.366-0.007,34.998-0.007l-35.601,47.47c-3.314,4.418-2.418,10.687,2,14
	c4.419,3.315,10.688,2.417,14-2l44.6-59.469c10.141,0,20.166,0,30.004-0.003l-29.183,38.913c-3.313,4.418-2.418,10.686,2,14
	c4.417,3.313,10.685,2.419,14-2l38.19-50.919h132.866c1.838,19.984,1.44,40.097-1.181,59.999h-17.656
	c-5.918,0-11.531-1.433-16.427-3.874c-21.983-10.999-51.428-6.432-68.494,10.623l-23.35,23.35
	C344.969,149.58,327.014,152.886,310.331,159.965z M470.838,189.572c-0.065,0.154-0.148,0.325-0.246,0.51
	c-14.741-10.773-44.775-29.784-81.457-37.078l12.109-12.109c11.067-11.06,31.014-14.083,45.421-6.874
	c7.619,3.798,16.275,5.98,25.361,5.98h14.253C482.742,156.962,477.566,173.589,470.838,189.572z"/>
<g>
</g>
<g>
</g>
<g>
</g>
<g>
</g>
<g>
</g>
<g>
</g>
<g>
</g>
<g>
</g>
<g>
</g>
<g>
</g>
<g>
</g>
<g>
</g>
<g>
</g>
<g>
</g>
<g>
</g>
</svg>
